<?xml version="1.0" standalone="no"?>
<!DOCTYPE svg PUBLIC "-//W3C//DTD SVG 20010904//EN"
 "http://www.w3.org/TR/2001/REC-SVG-20010904/DTD/svg10.dtd">
<svg version="1.0" xmlns="http://www.w3.org/2000/svg"
 width="274.000000pt" height="274.000000pt" viewBox="0 0 274.000000 274.000000"
 preserveAspectRatio="xMidYMid meet">
<metadata>
Created by potrace 1.11, written by Peter Selinger 2001-2013
</metadata>
<g transform="translate(0.000000,274.000000) scale(0.100000,-0.100000)"
fill="#000000" stroke="none">
<path d="M1262 2224 c-54 -27 -129 -101 -161 -157 -52 -92 -65 -234 -27 -292
15 -22 13 -27 -44 -94 -75 -90 -123 -160 -192 -286 -94 -169 -112 -225 -113
-335 0 -159 44 -253 160 -336 36 -25 65 -49 65 -53 0 -4 -23 -13 -51 -20 -144
-37 -197 -218 -93 -315 28 -25 29 -29 28 -119 -1 -72 -7 -105 -23 -142 -25
-56 -25 -55 -7 -55 8 0 16 7 20 15 7 19 26 19 26 0 0 -12 17 -15 90 -15 l90 0
0 80 c0 43 5 91 12 105 26 58 66 -2 67 -102 1 -91 -40 -83 432 -83 l418 0 3
48 3 47 24 -48 23 -47 104 0 103 0 -39 73 c-39 74 -80 191 -80 232 0 12 9 30
21 41 57 51 74 145 40 219 -25 55 -99 121 -153 135 -23 7 -49 14 -57 16 -11 4
-10 9 6 27 141 157 122 450 -46 723 -93 149 -248 308 -364 369 -30 16 -37 24
-31 40 3 11 9 57 11 103 5 74 2 88 -21 135 -35 73 -75 101 -151 104 -42 3 -70
-1 -93 -13z m-2 -79 c-13 -16 -50 -21 -50 -7 0 15 13 22 38 22 21 0 22 -2 12
-15z m-60 -35 c0 -5 -20 -30 -46 -56 -31 -32 -43 -52 -38 -63 14 -33 16 -108
4 -116 -29 -18 -40 64 -19 136 14 44 64 109 85 109 8 0 14 -4 14 -10z m-22
-92 c-6 -18 -28 -21 -28 -4 0 9 7 16 16 16 9 0 14 -5 12 -12z m340 -209 c30
-10 31 -12 16 -35 -14 -21 -18 -22 -31 -9 -8 8 -21 15 -29 15 -17 0 -18 12 -2
28 14 14 9 14 46 1z m2 -248 c70 -50 65 -114 -11 -142 -61 -23 -350 -62 -411
-57 -54 6 -92 33 -103 75 -10 41 3 61 58 87 63 31 130 46 251 56 114 10 184 4
216 -19z m-571 -52 c-41 -71 -113 -242 -129 -309 -18 -74 -18 -184 -1 -245 12
-38 30 -65 83 -117 37 -38 63 -68 58 -68 -6 0 -10 -9 -10 -20 0 -19 -2 -20
-28 -6 -42 22 -121 111 -144 164 -29 65 -34 161 -13 241 26 99 139 330 193
394 25 29 23 19 -9 -34z m455 -458 c9 -76 0 -111 -28 -112 -11 -1 -34 -2 -50
-3 -38 -3 -62 25 -71 80 -10 67 0 87 39 81 18 -3 39 -1 47 4 8 5 24 9 35 9 19
0 22 -8 28 -59z m-365 -356 c-11 -10 -69 20 -64 33 3 8 5 19 5 25 0 6 14 -3
32 -20 18 -18 30 -35 27 -38z m-45 -78 c7 -40 51 -91 86 -102 14 -4 28 -12 31
-17 3 -4 39 -15 80 -24 58 -13 105 -15 214 -10 77 4 156 9 175 12 31 5 33 4
15 -8 -26 -17 -424 -19 -446 -2 -8 6 -33 16 -57 23 -46 13 -84 39 -76 53 3 4
-2 5 -10 2 -20 -8 -36 26 -36 76 0 48 15 46 24 -3z m-154 -31 c0 -2 -8 -10
-17 -17 -16 -13 -17 -12 -4 4 13 16 21 21 21 13z m964 -35 c-21 -21 -112 -60
-149 -65 -22 -3 -33 -3 -25 0 8 3 24 9 35 14 11 5 36 14 55 20 19 6 46 19 60
30 24 18 44 19 24 1z m-1006 -31 c-5 -17 -8 -48 -6 -69 2 -22 0 -37 -4 -35
-13 8 -9 109 4 122 17 17 18 15 6 -18z m286 -192 c8 -13 7 -21 -1 -29 -23 -23
-74 15 -57 42 9 15 45 6 58 -13z m-225 -242 c-9 -8 -10 -2 -5 29 3 22 7 47 8
55 1 8 3 -5 5 -29 3 -26 -1 -48 -8 -55z"/>
</g>
</svg>
